<svg width="100" height="100" viewBox="0 0 100 100" fill="none" xmlns="http://www.w3.org/2000/svg">
<g clip-path="url(#clip0_7_8)">
<rect width="100" height="100" rx="20" fill="#98C57E"/>
<path d="M-48.059 67.1258C-48.059 67.1258 -14.3864 33.425 13.1783 31.7705C19 31.0333 36.3007 30.7596 46.5001 32.5333C55.7616 34.1439 62.5272 37.5845 68.0001 43.5333C74 53.5333 62.529 79.3915 48.5336 93.0077C25.383 115.531 -19.3268 127.928 -12.7037 128.363L-60.9999 115.422L-48.059 67.1258Z" fill="#FF7007"/>
<circle cx="30.6158" cy="47.8302" r="8" transform="rotate(15 30.6158 47.8302)" fill="black"/>
<line x1="50.0596" y1="63.6723" x2="73.3657" y2="58.6891" stroke="#F4F4F4" stroke-width="6" stroke-linecap="round"/>
<path d="M-5 14C-5 14 5.26264 16.7458 13.678 22.7121C22.0933 28.6785 23.9165 33.5 23.9165 33.5C23.9165 33.5 16.9165 34 11.4165 36C5.9165 38 0.416504 44 0.416504 44L-5 14Z" fill="#FF7007" fill-opacity="0.5"/>
</g>
<defs>
<clipPath id="clip0_7_8">
<rect width="100" height="100" rx="20" fill="white"/>
</clipPath>
</defs>
</svg>
